<svg width="40" height="40" viewBox="0 0 40 40" fill="none" xmlns="http://www.w3.org/2000/svg">
<rect width="40" height="40" rx="12" fill="#E6E8F7"/>
<path d="M13.4375 19.375H26.568C26.6508 19.375 26.7303 19.3421 26.7889 19.2835C26.8475 19.2249 26.8805 19.1454 26.8805 19.0625V16.875C26.8805 16.7929 26.8644 16.7116 26.8331 16.6357C26.8017 16.5599 26.7557 16.4909 26.6977 16.4328L22.3227 12.0578C22.2644 11.9996 22.1952 11.9535 22.119 11.9221C22.0429 11.8907 21.9613 11.8747 21.8789 11.875H14.375C14.0435 11.875 13.7255 12.0067 13.4911 12.2411C13.2567 12.4755 13.125 12.7935 13.125 13.125V19.0625C13.125 19.1454 13.1579 19.2249 13.2165 19.2835C13.2751 19.3421 13.3546 19.375 13.4375 19.375ZM21.875 13.4375L25.3125 16.875H21.875V13.4375ZM14.0625 21.25H12.8125C12.6467 21.25 12.4878 21.3159 12.3706 21.4331C12.2533 21.5503 12.1875 21.7092 12.1875 21.875V26.25C12.1875 26.4158 12.2533 26.5747 12.3706 26.6919C12.4878 26.8092 12.6467 26.875 12.8125 26.875H14.0102C15.5469 26.875 16.8398 25.6656 16.875 24.1305C16.8841 23.7554 16.818 23.3824 16.6807 23.0333C16.5435 22.6842 16.3377 22.3661 16.0757 22.0976C15.8136 21.8292 15.5005 21.616 15.1547 21.4704C14.809 21.3248 14.4376 21.2499 14.0625 21.25ZM14.0242 25.625H13.4375V22.5H14.0625C14.2729 22.4998 14.4811 22.5422 14.6747 22.6244C14.8683 22.7067 15.0433 22.8272 15.1892 22.9787C15.3351 23.1302 15.4489 23.3097 15.5238 23.5062C15.5987 23.7028 15.6331 23.9125 15.625 24.1227C15.593 24.968 14.8711 25.625 14.025 25.625H14.0242ZM27.3578 25.2906C27.4578 25.4163 27.5074 25.5746 27.4968 25.7349C27.4863 25.8951 27.4164 26.0456 27.3008 26.157C27.084 26.3821 26.8245 26.5616 26.5374 26.6849C26.2502 26.8082 25.9414 26.8728 25.6289 26.875C24.25 26.875 23.1289 25.6133 23.1289 24.0625C23.1289 22.5117 24.2508 21.25 25.6289 21.25C25.9414 21.2522 26.2502 21.3168 26.5374 21.4401C26.8245 21.5634 27.084 21.7429 27.3008 21.968C27.4164 22.0794 27.4863 22.2299 27.4968 22.3901C27.5074 22.5504 27.4578 22.7087 27.3578 22.8344C27.3013 22.9015 27.2313 22.956 27.1524 22.9943C27.0734 23.0326 26.9873 23.0538 26.8996 23.0566C26.8119 23.0594 26.7246 23.0437 26.6434 23.0105C26.5621 22.9774 26.4888 22.9275 26.4281 22.8641C26.3268 22.7523 26.2037 22.6624 26.0664 22.5998C25.9291 22.5372 25.7805 22.5032 25.6297 22.5C24.9406 22.5 24.3797 23.2031 24.3797 24.0625C24.3797 24.9219 24.9406 25.625 25.6297 25.625C25.7806 25.6217 25.9293 25.5877 26.0667 25.5251C26.2041 25.4625 26.3273 25.3726 26.4289 25.2609C26.4896 25.1976 26.5629 25.1477 26.6441 25.1145C26.7254 25.0813 26.8127 25.0656 26.9004 25.0684C26.9881 25.0712 27.0742 25.0924 27.1531 25.1307C27.2321 25.169 27.3021 25.2235 27.3586 25.2906H27.3578ZM20 21.25C18.6211 21.25 17.5 22.5117 17.5 24.0625C17.5 25.6133 18.6227 26.875 20 26.875C21.3773 26.875 22.5 25.6133 22.5 24.0625C22.5 22.5117 21.382 21.25 20 21.25ZM20 25.625C19.3102 25.625 18.75 24.9219 18.75 24.0625C18.75 23.2031 19.3109 22.5 20 22.5C20.6891 22.5 21.25 23.2031 21.25 24.0625C21.25 24.9219 20.6922 25.625 20 25.625Z" fill="#061BB0"/>
</svg>
