<svg width="40" height="40" viewBox="0 0 40 40" fill="none" xmlns="http://www.w3.org/2000/svg">
<path d="M33.75 11.25H20.5172L16.25 6.98281C16.0186 6.74979 15.7432 6.56503 15.4399 6.43923C15.1365 6.31344 14.8112 6.24912 14.4828 6.24999H6.25C5.58696 6.24999 4.95107 6.51339 4.48223 6.98223C4.01339 7.45107 3.75 8.08695 3.75 8.74999V31.3469C3.75124 31.9841 4.00504 32.5949 4.45578 33.0453C4.90652 33.4958 5.51745 33.7492 6.15469 33.75H33.8891C34.515 33.7492 35.115 33.5002 35.5576 33.0576C36.0002 32.615 36.2492 32.015 36.25 31.3891V13.75C36.25 13.087 35.9866 12.4511 35.5178 11.9822C35.0489 11.5134 34.413 11.25 33.75 11.25ZM6.25 8.74999H14.4828L16.9828 11.25H6.25V8.74999Z" fill="#989B9F"/>
</svg>
