<svg width="40" height="40" viewBox="0 0 40 40" fill="none" xmlns="http://www.w3.org/2000/svg">
<rect width="40" height="40" rx="12" fill="#FAE9E9"/>
<path d="M13.4375 19.375H26.5625C26.6454 19.375 26.7249 19.3421 26.7835 19.2835C26.8421 19.2249 26.875 19.1454 26.875 19.0625V16.875C26.8751 16.7929 26.8589 16.7116 26.8276 16.6357C26.7962 16.5598 26.7502 16.4909 26.6922 16.4328L22.3172 12.0578C22.2591 11.9998 22.1901 11.9538 22.1143 11.9224C22.0384 11.891 21.9571 11.8749 21.875 11.875H14.375C14.0435 11.875 13.7255 12.0067 13.4911 12.2411C13.2567 12.4755 13.125 12.7935 13.125 13.125V19.0625C13.125 19.1454 13.1579 19.2249 13.2165 19.2835C13.2751 19.3421 13.3546 19.375 13.4375 19.375ZM21.875 13.4375L25.3125 16.875H21.875V13.4375ZM27.5 21.9164C27.486 22.0771 27.4118 22.2265 27.2923 22.3347C27.1727 22.4429 27.0167 22.502 26.8555 22.5H25V23.75H26.2289C26.3902 23.7478 26.5463 23.8068 26.6659 23.9151C26.7855 24.0233 26.8596 24.1729 26.8734 24.3336C26.8791 24.4191 26.8671 24.5048 26.8383 24.5855C26.8094 24.6662 26.7643 24.7401 26.7057 24.8026C26.6471 24.865 26.5762 24.9148 26.4976 24.9488C26.4189 24.9828 26.3341 25.0002 26.2484 25H25V26.2289C25.0022 26.3902 24.9432 26.5463 24.8349 26.6659C24.7266 26.7855 24.5771 26.8596 24.4164 26.8734C24.3309 26.8791 24.2452 26.8672 24.1645 26.8383C24.0838 26.8094 24.0099 26.7643 23.9474 26.7057C23.8849 26.6471 23.8352 26.5762 23.8012 26.4976C23.7672 26.4189 23.7498 26.3341 23.75 26.2484V21.875C23.75 21.7092 23.8158 21.5503 23.933 21.4331C24.0503 21.3158 24.2092 21.25 24.375 21.25H26.875C26.9607 21.2498 27.0455 21.2672 27.1241 21.3012C27.2028 21.3352 27.2736 21.385 27.3322 21.4474C27.3909 21.5099 27.436 21.5838 27.4648 21.6645C27.4937 21.7452 27.5057 21.8309 27.5 21.9164ZM15 21.25H13.75C13.5842 21.25 13.4253 21.3158 13.308 21.4331C13.1908 21.5503 13.125 21.7092 13.125 21.875V26.2289C13.1224 26.3905 13.1812 26.547 13.2895 26.6669C13.3978 26.7868 13.5476 26.8612 13.7086 26.875C13.7941 26.8807 13.8798 26.8687 13.9605 26.8399C14.0412 26.811 14.115 26.7659 14.1775 26.7073C14.24 26.6486 14.2898 26.5778 14.3238 26.4991C14.3577 26.4205 14.3752 26.3357 14.375 26.25V25.625H14.9531C16.1437 25.625 17.1516 24.6938 17.1867 23.5039C17.1956 23.2112 17.1456 22.9196 17.0397 22.6466C16.9338 22.3735 16.7742 22.1245 16.5702 21.9143C16.3663 21.7041 16.1222 21.537 15.8525 21.4229C15.5828 21.3088 15.2929 21.25 15 21.25ZM14.9726 24.375H14.375V22.5H15C15.1311 22.4994 15.2609 22.5263 15.381 22.579C15.5011 22.6316 15.6088 22.7089 15.6971 22.8058C15.7855 22.9027 15.8525 23.0171 15.8939 23.1415C15.9353 23.2659 15.9502 23.3976 15.9375 23.5281C15.9102 23.7638 15.7964 23.9809 15.6181 24.1373C15.4399 24.2938 15.2098 24.3785 14.9726 24.375ZM20 21.25H18.75C18.5842 21.25 18.4253 21.3158 18.308 21.4331C18.1908 21.5503 18.125 21.7092 18.125 21.875V26.25C18.125 26.4158 18.1908 26.5747 18.308 26.6919C18.4253 26.8092 18.5842 26.875 18.75 26.875H19.9469C21.4828 26.875 22.7758 25.6656 22.8117 24.1305C22.8208 23.7555 22.7547 23.3825 22.6175 23.0335C22.4803 22.6844 22.2746 22.3663 22.0126 22.0979C21.7507 21.8295 21.4376 21.6162 21.092 21.4706C20.7463 21.325 20.3751 21.25 20 21.25ZM19.9617 25.625H19.375V22.5H20C20.2103 22.4998 20.4186 22.5422 20.6122 22.6244C20.8058 22.7067 20.9808 22.8272 21.1267 22.9787C21.2726 23.1302 21.3864 23.3097 21.4613 23.5062C21.5362 23.7028 21.5706 23.9125 21.5625 24.1227C21.5297 24.968 20.8078 25.625 19.9617 25.625Z" fill="#C70039"/>
</svg>
