<svg width="40" height="40" viewBox="0 0 40 40" fill="none" xmlns="http://www.w3.org/2000/svg">
<rect width="40" height="40" rx="12" fill="#FFF1E6"/>
<path d="M27.5 21.9164C27.4862 22.0771 27.412 22.2267 27.2925 22.3349C27.1729 22.4432 27.0168 22.5022 26.8555 22.5H25.9375V26.2289C25.9397 26.3902 25.8807 26.5463 25.7724 26.6659C25.6642 26.7855 25.5146 26.8596 25.3539 26.8734C25.2684 26.8791 25.1827 26.8672 25.102 26.8383C25.0213 26.8094 24.9474 26.7643 24.8849 26.7057C24.8225 26.6471 24.7727 26.5762 24.7387 26.4976C24.7047 26.4189 24.6873 26.3341 24.6875 26.2484V22.5H23.7711C23.6098 22.5022 23.4537 22.4432 23.3341 22.3349C23.2145 22.2267 23.1404 22.0771 23.1266 21.9164C23.1209 21.8309 23.1329 21.7452 23.1617 21.6645C23.1906 21.5838 23.2357 21.5099 23.2943 21.4474C23.3529 21.385 23.4238 21.3352 23.5024 21.3012C23.5811 21.2672 23.6659 21.2498 23.7516 21.25H26.8766C26.9621 21.25 27.0467 21.2676 27.1252 21.3017C27.2037 21.3357 27.2743 21.3855 27.3328 21.448C27.3912 21.5105 27.4362 21.5843 27.465 21.6649C27.4938 21.7454 27.5057 21.831 27.5 21.9164ZM17.1875 23.5039C17.1516 24.6938 16.1438 25.625 14.9531 25.625H14.375V26.2289C14.3776 26.3905 14.3188 26.547 14.2105 26.6669C14.1022 26.7868 13.9524 26.8612 13.7914 26.875C13.7059 26.8807 13.6202 26.8687 13.5395 26.8399C13.4588 26.811 13.3849 26.7659 13.3224 26.7073C13.26 26.6486 13.2102 26.5778 13.1762 26.4991C13.1422 26.4205 13.1248 26.3357 13.125 26.25V21.875C13.125 21.7092 13.1908 21.5503 13.3081 21.4331C13.4253 21.3158 13.5842 21.25 13.75 21.25H15C15.2929 21.2499 15.5829 21.3086 15.8527 21.4226C16.1226 21.5367 16.3667 21.7038 16.5708 21.914C16.7748 22.1242 16.9345 22.3733 17.0404 22.6464C17.1464 22.9195 17.1964 23.2111 17.1875 23.5039ZM15.9375 23.3477C15.9104 23.1119 15.7967 22.8946 15.6184 22.738C15.4401 22.5813 15.21 22.4965 14.9727 22.5H14.375V24.375H15C15.1311 24.3756 15.2609 24.3487 15.381 24.296C15.5011 24.2434 15.6088 24.1661 15.6971 24.0692C15.7855 23.9723 15.8525 23.8579 15.8939 23.7335C15.9353 23.6091 15.9502 23.4774 15.9375 23.3469V23.3477ZM22.5 23.5039C22.4641 24.6938 21.4563 25.625 20.2656 25.625H19.6875V26.2289C19.6897 26.3902 19.6307 26.5463 19.5224 26.6659C19.4142 26.7855 19.2646 26.8596 19.1039 26.8734C19.0184 26.8791 18.9327 26.8672 18.852 26.8383C18.7713 26.8094 18.6974 26.7643 18.6349 26.7057C18.5725 26.6471 18.5227 26.5762 18.4887 26.4976C18.4547 26.4189 18.4373 26.3341 18.4375 26.2484V21.875C18.4375 21.7092 18.5034 21.5503 18.6206 21.4331C18.7378 21.3158 18.8967 21.25 19.0625 21.25H20.3125C20.6054 21.2499 20.8954 21.3086 21.1653 21.4226C21.4351 21.5367 21.6792 21.7038 21.8833 21.914C22.0873 22.1242 22.247 22.3733 22.3529 22.6464C22.4589 22.9195 22.5089 23.2111 22.5 23.5039ZM21.25 23.3477C21.2229 23.1119 21.1092 22.8946 20.9309 22.738C20.7526 22.5813 20.5225 22.4965 20.2852 22.5H19.6875V24.375H20.3125C20.4436 24.3756 20.5734 24.3487 20.6935 24.296C20.8136 24.2434 20.9213 24.1661 21.0096 24.0692C21.098 23.9723 21.165 23.8579 21.2064 23.7335C21.2478 23.6091 21.2627 23.4774 21.25 23.3469V23.3477ZM13.125 19.0625V13.125C13.125 12.7935 13.2567 12.4755 13.4911 12.2411C13.7255 12.0067 14.0435 11.875 14.375 11.875H21.875C21.9571 11.8749 22.0384 11.891 22.1143 11.9224C22.1902 11.9538 22.2591 11.9998 22.3172 12.0578L26.6922 16.4328C26.7502 16.4909 26.7962 16.5598 26.8276 16.6357C26.859 16.7116 26.8751 16.7929 26.875 16.875V19.0625C26.875 19.1454 26.8421 19.2249 26.7835 19.2835C26.7249 19.3421 26.6454 19.375 26.5625 19.375H13.4375C13.3546 19.375 13.2751 19.3421 13.2165 19.2835C13.1579 19.2249 13.125 19.1454 13.125 19.0625ZM21.875 16.875H25.3125L21.875 13.4375V16.875Z" fill="#FF6F00"/>
</svg>
