<svg width="40" height="40" viewBox="0 0 40 40" fill="none" xmlns="http://www.w3.org/2000/svg">
<rect width="40" height="40" rx="12" fill="#E7EFF8"/>
<path d="M22.0555 22.2594L20.768 24.0625L22.0594 25.8703C22.154 25.9995 22.1968 26.1594 22.1791 26.3186C22.1615 26.4777 22.0847 26.6244 21.9641 26.7297C21.898 26.785 21.8213 26.8262 21.7386 26.8504C21.656 26.8747 21.5692 26.8816 21.4837 26.8708C21.3982 26.8599 21.3159 26.8315 21.242 26.7873C21.168 26.7432 21.104 26.6842 21.0539 26.6141L20 25.1375L18.9461 26.6133C18.8961 26.6833 18.8321 26.7423 18.7583 26.7865C18.6844 26.8306 18.6022 26.8591 18.5168 26.87C18.4314 26.8809 18.3447 26.8741 18.2621 26.85C18.1795 26.8258 18.1028 26.7849 18.0367 26.7297C17.9158 26.6246 17.8388 26.478 17.821 26.3188C17.8032 26.1596 17.8459 25.9995 17.9406 25.8703L19.232 24.0625L17.9445 22.2594C17.8463 22.1261 17.8033 21.96 17.8245 21.7958C17.8458 21.6316 17.9296 21.482 18.0586 21.3781C18.1252 21.3274 18.2012 21.2905 18.2823 21.2697C18.3634 21.2489 18.4478 21.2446 18.5306 21.2571C18.6134 21.2695 18.6928 21.2985 18.7642 21.3422C18.8356 21.386 18.8974 21.4436 18.9461 21.5117L20 22.9875L21.0539 21.5117C21.1026 21.4436 21.1644 21.386 21.2358 21.3422C21.3072 21.2985 21.3866 21.2695 21.4694 21.2571C21.5522 21.2446 21.6366 21.2489 21.7177 21.2697C21.7988 21.2905 21.8748 21.3274 21.9414 21.3781C22.0704 21.482 22.1542 21.6316 22.1755 21.7958C22.1967 21.96 22.1537 22.1261 22.0555 22.2594ZM16.5625 21.25H13.4586C13.2971 21.2476 13.1407 21.3065 13.0208 21.4148C12.9009 21.523 12.8265 21.6727 12.8125 21.8336C12.8068 21.9191 12.8188 22.0048 12.8476 22.0855C12.8765 22.1662 12.9216 22.2401 12.9802 22.3026C13.0389 22.365 13.1097 22.4148 13.1884 22.4488C13.267 22.4828 13.3518 22.5002 13.4375 22.5H14.375V26.2289C14.3724 26.3905 14.4312 26.547 14.5395 26.6669C14.6478 26.7868 14.7976 26.8612 14.9586 26.875C15.0441 26.8807 15.1298 26.8687 15.2105 26.8399C15.2912 26.811 15.3651 26.7659 15.4276 26.7073C15.49 26.6486 15.5398 26.5778 15.5738 26.4991C15.6078 26.4205 15.6252 26.3357 15.625 26.25V22.5H16.5414C16.7029 22.5024 16.8593 22.4435 16.9792 22.3352C17.0991 22.227 17.1735 22.0773 17.1875 21.9164C17.1932 21.8309 17.1812 21.7452 17.1524 21.6645C17.1235 21.5838 17.0784 21.5099 17.0198 21.4474C16.9611 21.385 16.8903 21.3352 16.8116 21.3012C16.733 21.2672 16.6482 21.2498 16.5625 21.25ZM26.5625 21.25H23.4586C23.2974 21.248 23.1413 21.3071 23.0218 21.4153C22.9022 21.5235 22.828 21.6729 22.8141 21.8336C22.8084 21.9191 22.8203 22.0048 22.8492 22.0855C22.8781 22.1662 22.9232 22.2401 22.9818 22.3026C23.0404 22.365 23.1113 22.4148 23.1899 22.4488C23.2686 22.4828 23.3534 22.5002 23.4391 22.5H24.3766V26.2289C24.3744 26.3902 24.4334 26.5463 24.5416 26.6659C24.6499 26.7855 24.7994 26.8596 24.9602 26.8734C25.0456 26.8791 25.1314 26.8672 25.2121 26.8383C25.2927 26.8094 25.3666 26.7643 25.4291 26.7057C25.4916 26.6471 25.5414 26.5762 25.5754 26.4976C25.6093 26.4189 25.6268 26.3341 25.6266 26.2484V22.5H26.543C26.7042 22.502 26.8602 22.4429 26.9798 22.3347C27.0993 22.2265 27.1735 22.0771 27.1875 21.9164C27.1932 21.8309 27.1812 21.7452 27.1524 21.6645C27.1235 21.5838 27.0784 21.5099 27.0198 21.4474C26.9611 21.385 26.8903 21.3352 26.8116 21.3012C26.733 21.2672 26.6482 21.2498 26.5625 21.25ZM13.125 19.0625V13.125C13.125 12.7935 13.2567 12.4755 13.4911 12.2411C13.7255 12.0067 14.0435 11.875 14.375 11.875H21.875C21.9571 11.8749 22.0384 11.891 22.1143 11.9224C22.1902 11.9538 22.2591 11.9998 22.3172 12.0578L26.6922 16.4328C26.7502 16.4909 26.7962 16.5598 26.8276 16.6357C26.859 16.7116 26.8751 16.7929 26.875 16.875V19.0625C26.875 19.1454 26.8421 19.2249 26.7835 19.2835C26.7249 19.3421 26.6454 19.375 26.5625 19.375H13.4375C13.3546 19.375 13.2751 19.3421 13.2165 19.2835C13.1579 19.2249 13.125 19.1454 13.125 19.0625ZM21.875 16.875H25.3125L21.875 13.4375V16.875Z" fill="#0D5EBA"/>
</svg>
