<svg width="40" height="40" viewBox="0 0 40 40" fill="none" xmlns="http://www.w3.org/2000/svg">
<rect width="40" height="40" rx="12" fill="#E8F6F3"/>
<path d="M13.4375 19.375H26.5625C26.6454 19.375 26.7249 19.3421 26.7835 19.2835C26.8421 19.2249 26.875 19.1454 26.875 19.0625V16.875C26.8751 16.7929 26.859 16.7116 26.8276 16.6357C26.7962 16.5598 26.7502 16.4909 26.6922 16.4328L22.3172 12.0578C22.2591 11.9998 22.1902 11.9538 22.1143 11.9224C22.0384 11.891 21.9571 11.8749 21.875 11.875H14.375C14.0435 11.875 13.7255 12.0067 13.4911 12.2411C13.2567 12.4755 13.125 12.7935 13.125 13.125V19.0625C13.125 19.1454 13.1579 19.2249 13.2165 19.2835C13.2751 19.3421 13.3546 19.375 13.4375 19.375ZM21.875 13.4375L25.3125 16.875H21.875V13.4375ZM22.1875 26.2914C22.1735 26.4521 22.0993 26.6015 21.9798 26.7097C21.8603 26.8179 21.7042 26.877 21.543 26.875H19.375C19.2092 26.875 19.0503 26.8092 18.9331 26.6919C18.8159 26.5747 18.75 26.4158 18.75 26.25V21.8961C18.748 21.7349 18.8071 21.5788 18.9153 21.4593C19.0235 21.3397 19.173 21.2655 19.3336 21.2516C19.4191 21.2459 19.5048 21.2578 19.5855 21.2867C19.6662 21.3156 19.7401 21.3607 19.8026 21.4193C19.8651 21.4779 19.9148 21.5488 19.9488 21.6274C19.9828 21.7061 20.0002 21.7909 20 21.8766V25.6266H21.5625C21.648 25.6264 21.7327 25.6438 21.8113 25.6776C21.8898 25.7115 21.9606 25.7612 22.0192 25.8235C22.0777 25.8858 22.1229 25.9595 22.1519 26.04C22.1808 26.1205 22.193 26.206 22.1875 26.2914ZM17.3836 22.2383L16.0805 24.0625L17.3836 25.8867C17.4713 26.0217 17.5036 26.1852 17.4737 26.3434C17.4438 26.5015 17.3541 26.642 17.2232 26.7356C17.0923 26.8293 16.9304 26.8688 16.771 26.846C16.6117 26.8232 16.4674 26.7399 16.368 26.6133L15.3125 25.1375L14.2586 26.6133C14.2126 26.6841 14.1527 26.7448 14.0826 26.7918C14.0125 26.8388 13.9336 26.8711 13.8506 26.8868C13.7676 26.9025 13.6824 26.9012 13.5999 26.883C13.5175 26.8648 13.4396 26.8301 13.3709 26.781C13.3023 26.7319 13.2443 26.6694 13.2004 26.5972C13.1566 26.5251 13.1278 26.4448 13.1159 26.3612C13.1039 26.2776 13.109 26.1925 13.1308 26.1109C13.1527 26.0294 13.1908 25.9531 13.243 25.8867L14.5445 24.0625L13.2414 22.2383C13.1916 22.1686 13.1566 22.0895 13.1386 22.0058C13.1207 21.9221 13.1201 21.8356 13.1369 21.7516C13.1538 21.6677 13.1877 21.5881 13.2366 21.5178C13.2855 21.4475 13.3483 21.388 13.4211 21.343C13.5601 21.2611 13.725 21.2347 13.8826 21.2692C14.0402 21.3037 14.179 21.3965 14.2711 21.5289L15.3125 22.9875L16.3664 21.5117C16.4658 21.3851 16.6102 21.3018 16.7695 21.279C16.9288 21.2562 17.0908 21.2957 17.2216 21.3894C17.3525 21.483 17.4423 21.6235 17.4721 21.7816C17.502 21.9398 17.4697 22.1033 17.382 22.2383H17.3836ZM26.8586 25.3367C26.8344 25.5757 26.7575 25.8064 26.6335 26.0121C26.5095 26.2178 26.3414 26.3935 26.1414 26.5266C25.7359 26.7969 25.2297 26.875 24.775 26.875C24.3744 26.8733 23.9757 26.8208 23.5883 26.7188C23.4286 26.6741 23.2933 26.5679 23.212 26.4234C23.1306 26.2789 23.11 26.1081 23.1547 25.9484C23.1993 25.7888 23.3056 25.6534 23.4501 25.5721C23.5945 25.4908 23.7654 25.4702 23.925 25.5148C24.2672 25.6094 25.0922 25.7266 25.4516 25.4875C25.5211 25.4406 25.5953 25.3687 25.6195 25.1805C25.6461 24.9719 25.5633 24.8602 24.6211 24.5875C23.8906 24.3766 22.668 24.0227 22.8242 22.7812C22.8484 22.5474 22.9235 22.3217 23.0443 22.12C23.1651 21.9184 23.3287 21.7457 23.5234 21.6141C24.4484 20.9891 25.9234 21.3555 26.0883 21.3984C26.2487 21.4406 26.3857 21.5447 26.4693 21.688C26.5529 21.8312 26.5762 22.0017 26.534 22.1621C26.4918 22.3225 26.3877 22.4595 26.2445 22.5431C26.1012 22.6267 25.9307 22.65 25.7703 22.6078C25.4203 22.5164 24.5813 22.4078 24.2219 22.6516C24.1748 22.6833 24.136 22.726 24.1088 22.7759C24.0816 22.8258 24.0668 22.8815 24.0656 22.9383C24.057 23.0086 24.0555 23.0227 24.1531 23.0867C24.3336 23.2031 24.657 23.2961 24.9695 23.3867C25.7406 23.607 27.0313 23.9844 26.8586 25.3367Z" fill="#16A085"/>
</svg>
